<?xml version="1.0" encoding="utf-8"?>
<!-- Generator: Adobe Illustrator 25.0.0, SVG Export Plug-In . SVG Version: 6.00 Build 0)  -->
<svg version="1.1"
	 id="svg847" inkscape:version="1.0.1 (3bc2e813f5, 2020-09-07)" sodipodi:docname="Black Sabbath logo.svg" xmlns:cc="http://creativecommons.org/ns#" xmlns:dc="http://purl.org/dc/elements/1.1/" xmlns:inkscape="http://www.inkscape.org/namespaces/inkscape" xmlns:rdf="http://www.w3.org/1999/02/22-rdf-syntax-ns#" xmlns:sodipodi="http://sodipodi.sourceforge.net/DTD/sodipodi-0.dtd" xmlns:svg="http://www.w3.org/2000/svg"
	 xmlns="http://www.w3.org/2000/svg" xmlns:xlink="http://www.w3.org/1999/xlink" x="0px" y="0px" viewBox="0 0 920 483"
	 style="enable-background:new 0 0 920 483;" xml:space="preserve">
<g id="g855" inkscape:groupmode="layer" inkscape:label="Image">
	<path id="path1997" d="M110,431c3.9-11.5,6.5-22.7,7.6-33.1c3.3-30.6,15.9-67.9,35-103.3c8.8-16.3,12.5-18.8,38.5-25.3
		c10.1-2.6,18.6-4.5,18.8-4.2c2.1,2.5,7.6,16.1,11.7,28.7c4.4,13.9,7,26.7,12.6,64.1c1.2,8.2,11.4,41.8,16.6,55.2
		c0.9,2.2-1.9,2.6-23.1,3.5c-13.3,0.6-27.5,1.5-31.6,2l-7.5,1V412v-7.5l-8.1,1c-4.5,0.5-12.5,3-17.9,5.5c-9.1,4.3-9.9,5-11.2,11.3
		c-1.4,6.7-1.6,6.8-12.5,10.5c-6.1,2-16.4,6.4-22.9,9.6l-11.9,5.9L110,431z M185,369.6c0.3-3.1,0.3-8,0-10.8l-0.5-5.1l-4.4,7.4
		c-4.6,7.6-7.7,16.3-6.4,17.6c0.4,0.4,3-0.2,5.8-1.3C183.6,375.7,184.6,374.3,185,369.6L185,369.6z M255.7,407.8
		c-3.1-25.6-0.6-52.4,9.2-99.4c3-14.5,6-31.4,6.5-37.4l1-11.1l7.3,0c9.3,0,22.8-3.2,46.9-11c25.9-8.4,34.3-9.3,41.6-4.4
		c3,2.1,7.3,6.9,9.5,10.8c3.4,6.1,3.9,9,3.9,21.2c0,16.3-3.4,25.1-13.3,35.6l-5.7,6l6.8,5.7c30.8,25.7,14.1,79.5-27,87.3
		c-4.4,0.8-24,1.9-43.5,2.4s-37,1.3-38.8,1.8C257,416.1,256.6,415.4,255.7,407.8L255.7,407.8z M323,366.9c3.8-1.8,7.3-7.4,7.3-11.8
		c0-3.8-7.4-10.1-11.8-10.1c-3.9,0-4,0.2-4,11.8C314.6,369.6,315.3,370.5,323,366.9z M327.6,295.8c4.1-4.7,2.9-10.9-2.6-13.5
		c-2.4-1.2-4.8-1.8-5.3-1.3c-0.4,0.4-1.2,5.2-1.7,10.6c-0.9,9.7-0.9,9.8,2.9,8.7C323.1,299.6,326.1,297.6,327.6,295.8L327.6,295.8z
		 M387.7,401.5c2.4-15.4,5.6-91,5.6-133.2c0-33.4,0.3-36.6,2.8-37.4c6-1.8,47.9-5.7,65-6.1c21.1-0.5,26.3,1.3,37.3,12.6
		c17.3,17.8,17.5,49.2,0.5,68.6l-6.2,7l7.9,4.9c19.2,11.9,18.3,39.5-1.7,57.4c-16.7,14.9-45.5,23.3-103.7,30.2l-8.4,1L387.7,401.5z
		 M457.3,355.4c2.1-2.1,3.9-5,3.9-6.4c0-3.5-7.1-10.2-10.8-10.2c-2.7,0-3.2,1.3-3.6,9.6c-0.3,5.3-0.2,9.9,0.1,10.2
		C448.7,360.4,453.9,358.8,457.3,355.4L457.3,355.4z M456.6,286.8c2.5-2.5,4.6-5.8,4.6-7.2c0-3.6-7.1-10.3-11-10.3
		c-2.6,0-3.2,1-3.2,5.1c0,2.8-0.5,7.8-1,11c-0.9,5.3-0.6,5.9,2.5,5.9C450.4,291.5,454,289.4,456.6,286.8L456.6,286.8z M853.4,384.5
		c-10.1-0.5-18.8-1.3-19.2-1.7c-0.4-0.4,0.5-4.8,2.1-9.7c3.4-10.3,6.1-27.4,6.7-43.1l0.4-11l-7.9-0.1c-11.7-0.1-11.8,0-11.8,11.4
		c0,13.4-2.6,30.6-6.5,42.5l-3.1,9.7l-26.3-0.8c-14.5-0.5-26.6-1-26.8-1.3c-0.3-0.2,1.3-7.8,3.5-16.7c5.5-22.5,7-39.2,8-90.4
		c1.2-61,2-70.6,5.3-69.4c5.7,2.2,25.3,5.7,36.8,6.6l12.1,0.9l1,12.8c0.5,7,0.8,19.5,0.5,27.8l-0.4,15h9.5h9.5l-0.1-26.8l-0.1-26.8
		h27.9h27.9l0.2,25.2c0.1,13.9-0.6,30.9-1.5,37.8c-0.9,6.9-2.3,30.3-3,52c-1,29.9-2,41.6-4,48.5l-2.7,9.1l-9.6-0.3
		C876.1,385.6,863.5,385.1,853.4,384.5L853.4,384.5z M513.1,362.9c20.4-41.4,33.9-74.6,48.4-119.2l7.6-23.3l14.2-0.2
		c7.8-0.1,20.7-0.5,28.7-0.8l14.5-0.7l1.7,6.7c3.3,12.8,6.8,22.6,19,54.1c15.8,40.6,20.4,57.8,21.5,80.9l0.9,18l-6.1-1
		c-3.4-0.6-15.9-1-27.8-1l-21.7,0v-4.8c0-2.6-1.1-7.3-2.4-10.5l-2.4-5.7l-16.9,0.9c-9.3,0.5-18.1,1.4-19.5,1.9
		c-3.1,1.2-6.1,7.5-6.1,12.7c0,4.4-1.2,4.8-18.9,6.3c-11,0.9-34,4.5-42.1,6.5C502.7,384.7,503.6,382.2,513.1,362.9L513.1,362.9z
		 M600.7,316.7c1.2-1.9-3.4-18.4-5.5-19.7c-1.6-1-5.4,5.5-8.8,15.1l-2.2,6.1h7.7C596.2,318.2,600.1,317.5,600.7,316.7L600.7,316.7z
		 M680.5,376.9l-6.9-0.5l1.1-6.6c4.1-24.5,7.3-56.4,8.2-81.1l1-28.8l-6.9,0c-3.8,0-9.8,0.7-13.2,1.5s-6.4,1.3-6.5,1.1
		c-0.1-0.2,1.4-6.7,3.4-14.5c2-7.8,4.1-18.1,4.7-22.9l1-8.7l22.3-5.9c30.5-8.1,37.5-9.2,57.2-8.7l17.1,0.4l-0.5,6.5
		c-0.3,3.6,0.7,16.6,2.1,28.9c1.4,12.3,2.4,22.6,2.1,22.9c-0.3,0.3-3.7-0.1-7.6-0.9c-3.9-0.8-9.7-1.4-12.8-1.4l-5.7-0.1l-1,21.7
		c-1.6,36.2-4.1,61.9-7.7,80.1l-3.5,17.3l-20.5,0C696.6,377.4,684.3,377.2,680.5,376.9L680.5,376.9z M166.9,266.9
		c10.4-31.9,12.2-47.5,12.6-109.4l0.3-51.2l47.3-1.3c52.2-1.4,57.3-0.8,66.5,7.2c4.3,3.8,5.3,5.8,5.3,10.8c0,8.6-5.8,19.1-17.4,31.8
		l-9.8,10.7l5.7,5.5c7.1,6.9,9.6,15.6,8.2,28.8c-2,19.4-12.2,37.3-25.3,44c-6.8,3.5-19.5,6.7-26.9,6.7c-14.7,0.1-39.9,7.2-65.3,18.5
		C166.5,269.7,166.1,269.1,166.9,266.9L166.9,266.9z M229.1,213.3c3.1-2.1,8.2-9.9,8.2-12.4c0-0.5-2-0.9-4.4-0.9
		c-3.7,0-5,1.2-7.9,7.1c-1.9,3.9-3.5,7.5-3.5,7.9C221.6,216.6,225.7,215.7,229.1,213.3z M251.5,160.6c6.5-6.5,2-17.3-7.2-17.3
		c-2.8,0-3.5,1.2-4.4,7.3c-1.7,12.5-1.5,13.2,3.7,13.2C246.3,163.8,249.8,162.4,251.5,160.6z M291.5,212
		c1.3-44.8,2.7-54.6,10.5-72.8c3.3-7.9,8-20.8,10.4-28.8c2.4-7.9,5.1-14.4,6-14.4c0.9,0,11.1-3.8,22.7-8.5c15.7-6.4,20.7-7.9,20-5.9
		c-3.7,9.2-8.7,34.5-10.3,51.8c-1.6,17.8-1.1,51,0.9,54.2c0.8,1.4,24.6-3.4,38.2-7.7c5.4-1.7,9.9-2.8,9.9-2.4c0,0.4-3.4,9-7.6,19.1
		c-4.2,10.2-8.5,20.7-9.6,23.5c-1.5,3.9-3.2,5.2-7.7,6.1c-3.2,0.6-15.1,4.5-26.4,8.7c-18.1,6.7-34.7,10.8-52.5,13l-5.4,0.7
		L291.5,212z M395.9,202.2c23.1-48.7,40.4-89.1,55.9-130.6c4.5-12.1,8.3-22.2,8.5-22.4c0.1-0.2,9.8-1.1,21.5-2
		c11.7-0.9,23.8-2,26.9-2.4l5.7-0.8l1.9,20.1c3.6,37.6,12.8,83.6,24,120.2c3.6,11.7,6.9,22.5,7.3,24c0.7,2.5-1,2.8-20.3,2.8
		c-11.6,0.1-25.2,0.5-30.1,0.9c-9.8,0.9-9.6,1-11.3-8.9c-0.5-3-1.5-6.3-2.1-7.2c-1.6-2.2-31.4-0.2-34,2.3c-1,1-3,5.1-4.3,9.1
		s-3.5,7.4-4.7,7.6c-1.3,0.2-7.6,0.8-14.1,1.4c-10.6,0.9-24.5,3.4-36.6,6.5C385.6,224,385.6,223.9,395.9,202.2L395.9,202.2z
		 M477.8,146c-0.6-3.7-1.4-9.2-2-12.2l-0.9-5.5l-5.3,11.6c-2.9,6.4-5.3,11.9-5.3,12.2s3.3,0.6,7.2,0.6h7.2L477.8,146z M603.8,213.2
		c-19-2.9-37.3-11.9-47.6-23.3c-14.1-15.6-20.4-36-18.9-62c1.1-19.7,4.1-30.7,13.3-49.2c6-12.1,9.9-17.4,20.1-27.6
		c14.5-14.5,27.2-21.6,45.2-25.3c11.3-2.4,26.2-2.5,25.4-0.2c-0.2,0.7-0.4,15.8-0.4,33.7c0,30.3-0.2,32.4-2.8,31.3
		c-4.2-1.8-18.6-2.8-23.1-1.7c-11,2.8-19.8,16.5-19.9,31c-0.1,16.5,9.4,26.8,24.7,26.8c4.7,0,11-1.1,14.1-2.4s6.1-2.4,6.6-2.4
		c1.2,0-2.1,69-3.3,70.3C636.2,213.1,609.7,214.1,603.8,213.2L603.8,213.2z M649.8,183.2c-1.5-37.2-1.3-83.9,0.7-121.1
		c1-18.2,1.9-33.3,2.1-33.5c0.2-0.2,13.1-0.9,28.6-1.4l28.2-1L709,48.5c-0.3,12.3,0.1,22.3,0.8,22.3c0.7,0,5.5-9.1,10.6-20.1
		s9.8-20.6,10.4-21.3c0.5-0.7,14.2-1,30.3-0.8l29.3,0.4l-19.6,37.8c-10.8,20.8-19.6,38.5-19.6,39.3c0,0.8,3.5,10.1,7.8,20.6
		c8.1,20,23.7,64.5,23.7,67.7c0,1.4-2.8,1.4-11.4-0.2c-6.3-1.1-19.2-2-28.8-1.9l-17.3,0.2l-7.9-18.5l-7.9-18.5l-0.4,20.6
		c-0.4,19.9-0.6,20.6-3.9,21.3c-1.9,0.4-13.4,2.5-25.6,4.8c-12.1,2.3-23.6,4.5-25.4,5C650.9,208.1,650.8,207.5,649.8,183.2
		L649.8,183.2z M31.1,465.4l-8.4-0.7l1-5c2.3-11.4,7.3-29.8,10.3-38c2.9-7.7,3.6-8.6,6.2-7.2c7.3,3.9,15.8-0.2,15.8-7.7
		c0-1.9-1.8-7-4-11.3c-14.4-28.4-10.2-62.9,9.7-80.4c10.1-8.9,20.5-12.6,39.5-14.1c9.4-0.7,17.3-1.1,17.6-0.8
		c1.1,1.1-4.6,21.4-9.4,33.9l-4.7,12.2l-6.1-0.8c-9.6-1.3-9.8,3-1,20.5c12.5,25,15.3,45.7,8.5,63.7c-4.1,10.9-16.7,24.2-29.5,31
		c-7.4,3.9-10.5,4.6-22.9,4.9C45.9,465.9,35.7,465.7,31.1,465.4L31.1,465.4z"/>
</g>
</svg>
