<?xml version="1.0" encoding="utf-8"?>
<!-- Generator: Adobe Illustrator 25.0.0, SVG Export Plug-In . SVG Version: 6.00 Build 0)  -->
<svg version="1.1" id="Calque_1" xmlns="http://www.w3.org/2000/svg" xmlns:xlink="http://www.w3.org/1999/xlink" x="0px" y="0px"
	 viewBox="0 0 2500 500" style="enable-background:new 0 0 2500 500;" xml:space="preserve">
<g>
	<path d="M379.8,265.3l42.7,52.7h229l42.7-47.5C635.9,207.2,586,152.2,531.9,93.1C481.8,150.2,429.8,208.3,379.8,265.3z M602.6,261
		L602.6,261H467.2l67.7-76L602.6,261z"/>
	<polygon points="857.6,172.4 768,92.1 667.1,92.1 713,133.3 713,326.6 781.6,326.6 781.6,192.5 857.6,260 857.6,340.3 926.2,402.6 
		926.2,98.5 857.6,98.5 	"/>
	<path d="M397.6,205.1L288.3,93.1l-45.8,42.3v-37h-68.7v228.1h68.7v-55l121.7,131l49.9-43.3l-77-89.7L397.6,205.1z M251.8,210.4
		l14.6-14.8l14.6-14.8l0,0l14.6,14.8l14.6,14.8H251.8z"/>
	<rect x="61.3" y="94.3" width="68.7" height="228.1"/>
	<polygon points="1987.9,98.5 1987.9,98.5 1987.9,271.6 2035.9,326.6 2148.3,326.6 2148.3,269.5 2055.6,269.5 2055.6,232.6 
		2148.3,232.6 2148.3,175.5 2055.6,175.5 2055.6,155.5 2148.3,155.5 2148.3,98.5 	"/>
	<path d="M1718.4,94.3v232.3h196.8l49.9-68.7L1826.6,93.1L1718.4,94.3z M1792.3,269.5V153.3l99.9,116.2H1792.3z"/>
	<polygon points="2368.9,97.4 2368.9,169.3 2279.4,96.4 2279.4,96.4 2178.5,96.4 2227.4,137.5 2227.4,326.6 2298.2,326.6 
		2298.2,192.5 2370,260 2370,347.7 2438.7,407.9 2438.7,98.5 	"/>
	<path d="M1409.2,178.8l-33.3-32.8l-40.6,45.4l34.3,32.8l-49.9,58.1l43.7,45.4l52.1-59.1l65.6,66.6l80.2-1.1V98.5h-78L1409.2,178.8z
		 M1496.7,256.9l-36.5-34.9l36.5-41.1V256.9z"/>
	<polygon points="1606,98.5 1606,326.6 1673.7,326.6 1673.7,98.5 	"/>
	<polygon points="1175.1,141.7 1124,93.1 1009.5,93.1 1055.3,131.2 1055.3,326.6 1123,326.6 1123,189.2 1173,230.5 1219.8,180.9 
		1219.8,348.8 1288.5,407.9 1288.5,148.1 1219.8,96.4 	"/>
</g>
</svg>
