<?xml version="1.0" encoding="utf-8"?>
<!-- Generator: Adobe Illustrator 14.0.0, SVG Export Plug-In . SVG Version: 6.00 Build 43363)  -->
<!DOCTYPE svg PUBLIC "-//W3C//DTD SVG 1.1//EN" "http://www.w3.org/Graphics/SVG/1.1/DTD/svg11.dtd">
<svg version="1.1" id="Calque_1" xmlns="http://www.w3.org/2000/svg" xmlns:xlink="http://www.w3.org/1999/xlink" x="0px" y="0px"
	 width="600px" height="300px" viewBox="0 0 600 300" enable-background="new 0 0 600 300" xml:space="preserve">
<polygon points="85.147,11.626 87.75,169.962 60.145,161.107 80.98,141.315 81.5,122.568 45.561,154.855 45.041,169.441 
	102.856,192.878 99.208,18.395 "/>
<path stroke="#000000" d="M285.672,134.026l16.664,5.727l-0.521-15.103l-34.374-12.503l-0.521,16.668l16.668,38.542l-29.171-10.941
	l-0.521-49.476l-13.541-5.21v7.293l-7.293-9.896l-15.623-6.772l-0.524,44.794l-7.289,5.727l-5.731-4.686l-0.521-81.254l-12.5-6.248
	l-1.041,39.059l-4.69-8.326l-17.185-5.731l-0.521,46.876l-6.772,3.641l-6.251-7.81V70.481l-13.02-6.251l0.521,54.69l-14.584-15.627
	l1.042-43.229l-14.061-5.731l-0.522,53.646l24.481,30.212l8.332-7.813l12.501,17.709l11.46-9.375l10.935,16.668l11.979-10.941
	l13.023,18.75l10.937-9.375l14.582,18.229l11.461-9.375l13.541,19.275l5.21-7.813l39.063,15.627l-0.525-21.358L285.672,134.026z
	 M190.877,128.295l-5.207,5.731l-5.21-4.689l-0.517-34.374l11.454,3.645L190.877,128.295z M240.877,146.525l-5.727,6.251
	l-4.686-4.168v-34.898l10.413,3.128V146.525z"/>
<polygon stroke="#000000" points="315.881,196.005 324.215,206.422 329.941,201.215 328.379,117.358 353.902,126.729 
	334.11,146.004 334.11,165.272 369.525,134.026 369.005,117.878 315.359,97.045 "/>
<polygon stroke="#000000" points="349.213,159.024 361.716,148.087 362.757,156.417 374.735,147.566 374.211,165.272 
	362.757,175.172 362.757,213.711 356.506,218.921 348.172,209.546 "/>
<polygon stroke="#000000" points="379.421,139.697 394.711,145.817 395.32,129.299 380.031,122.576 "/>
<path stroke="#000000" d="M486.194,192.36l-34.374-13.023l-0.521,15.11l15.627,40.101l-46.359-17.71l25.522-23.96v-15.103
	l-40.625-14.586v48.963l-11.458-5.21l-0.521-47.397l-14.065-5.73v67.189l8.855,8.337l7.292-6.251l90.626,33.332l-1.041-21.354
	l-13.541-32.815l14.582,4.689V192.36z M419.009,182.465l11.458,4.165l-10.417,10.416L419.009,182.465z"/>
<path stroke="#000000" d="M546.589,130.172v21.56l-32.122-12.45l0.479-39.314l-18.698-5.004l-0.479,36.167l-32.123-12.945
	l0.479-21.14l-18.698-6.188l-0.479,29.366l7.191,19.058l10.548,2.876l13.979,36.726l21.021,8.342l0.486,9.3v14.582V268.4
	l-99.477-35.418l-12.503,8.858l-16.147-21.358l-13.54,9.38l-19.792-22.399l-11.979,11.458l-16.668-19.271l-42.187-15.106
	l-9.375,7.817l-14.069-16.147l-9.888,8.33l-17.192-18.746l-8.331,8.851l-15.106-16.664l-9.375,8.334l-12.499-15.106l-10.418,8.334
	l-14.062-15.623l-7.291,5.727l-32.814-39.584v24.481l30.728,38.018l7.813-8.851L156.5,181.42l11.462-10.417l11.982,18.23
	l10.413-10.938l13.02,17.709l11.979-10.416l15.11,21.874l10.413-12.499l12.503,20.313l16.144-15.627l30.729,10.941l21.358,29.688
	l14.582-13.544l18.229,25.522l13.541-11.979l16.668,23.437l16.664-15.627l110.938,42.188l-0.517-73.438l-0.521-16.147l-0.108-9.049
	l20.253,6.832l13.986-25.181L555.5,177.5l10.267-11.85v-28.767L546.589,130.172z M495.769,165.43l-6.712-3.136l-5.274-14.728
	l11.986,5.21V165.43z M520.984,174.28l-6.997-2.877v-11.506l13.166,5.532L520.984,174.28z"/>
</svg>
