<?xml version="1.0" encoding="utf-8"?>
<!-- Generator: Adobe Illustrator 25.0.0, SVG Export Plug-In . SVG Version: 6.00 Build 0)  -->
<svg version="1.1" id="Calque_1" xmlns="http://www.w3.org/2000/svg" xmlns:xlink="http://www.w3.org/1999/xlink" x="0px" y="0px"
	 viewBox="0 0 2500 2500" style="enable-background:new 0 0 2500 2500;" xml:space="preserve">
<style type="text/css">
	.st0{fill-rule:evenodd;clip-rule:evenodd;}
</style>
<path class="st0" d="M2271.7,806.8c-327.6-192.4-291.5-363.1-409.9-589.4c0,0-20.4-60-118.6-96.9
	c-212.1-48.8-371.6,146.4-409.8,178.7c7.1-64.7-144.7-334.3-433.5-85.2C701.5,356,702,702.7,366.3,836.3c-5.5-3.1-55.6,32.7-3.9,82
	c0,0,150.2,96.9,155.2,271.4c-9.3,35-130.3,160-196.9,444c-126.1,715.5,659,1067.2,1029.5,402.9c0,0,275.9,3.1,433.9-371.4
	c101-216.3,107.9-396.2,362.7-674.1c71.4-75.5,119.6-119.6,119.6-119.6S2312.8,836.2,2271.7,806.8z M1605.6,181.3
	c0,0,133.7-25,173.7,45.1c0,0,21.5,49,11,83.7c-69.5,94-131,12-131,12s-42.4-24.4-73.3-4.2h0c-32.3,11.8-85.2,24.9-92.8-43.4
	C1514.4,204.5,1605.6,181.3,1605.6,181.3z M962,287.5c30.3-110.1,164.4-117.8,164.4-117.8s117.6,0.7,131.9,82
	c20.1,72.4-34.8,99.2-34.8,99.2s-58.4,41.3-100.9-19.7c-54.4-28.2-80.5-2.8-80.5-2.8S933.5,380.2,962,287.5z M927.7,1078.3
	c-257.8,252.1-292.5,552-297.4,671.9c-13.7,109.6-77.1,104.5-77.1,104.5s-60.3,2.7-71.2-95.9c-7.9-454.2,371-711,385.7-724.2
	C905.8,1008.2,1017.8,978.2,927.7,1078.3z M1657.7,1059.9c-5.1,25.8-24.8,46.8-68.5,88.8c-217.6,209.3-261.9,645.2-277.3,692.7
	c-29.7,110.2-104.1,255-213.2,224.5c-108.1-78.2,27.9-259.4,29.4-268.2c75-121.5,200.5-544.3,298.9-648.6h0
	c62.4-79.7,132.3-113.4,132.3-113.4s78-38.8,93-11.3C1659.4,1029.3,1660.8,1044.1,1657.7,1059.9z M1608.6,746.2
	c-156.7,184.3-316.3,87.4-346,8.1c-199.1,159.3-314.5,38-317.8-51.2c-24.2,28.7-151.5,72.1-182.9-39.2c12.8-30.9,26-34.8,26-34.8
	s57.5-54.8,161.7-68.5c118.9-8.3,169,49.2,205.3,63.5c28.6,18.7,103.6,49.1,209.1-7.2c89.2-59.8,192.8-52.3,192.8-52.3
	s78.4,0,133.2,54.8c92.6,97.5,127.3,192,129.5,200.8C1805.1,826.7,1667.2,912.2,1608.6,746.2z"/>
</svg>
