<?xml version="1.0" encoding="UTF-8" standalone="no"?>
<!-- Created with Inkscape (http://www.inkscape.org/) -->

<svg
   xmlns:dc="http://purl.org/dc/elements/1.1/"
   xmlns:cc="http://creativecommons.org/ns#"
   xmlns:rdf="http://www.w3.org/1999/02/22-rdf-syntax-ns#"
   xmlns:svg="http://www.w3.org/2000/svg"
   xmlns="http://www.w3.org/2000/svg"
   xmlns:sodipodi="http://sodipodi.sourceforge.net/DTD/sodipodi-0.dtd"
   xmlns:inkscape="http://www.inkscape.org/namespaces/inkscape"
   width="81.902748mm"
   height="46.835793mm"
   viewBox="0 0 290.20659 165.95359"
   id="svg2"
   version="1.1"
   inkscape:version="0.91 r13725"
   sodipodi:docname="Van Halen logo.svg">
  <title
     id="title4156">Van Halen logo</title>
  <defs
     id="defs4" />
  <sodipodi:namedview
     id="base"
     pagecolor="#ffffff"
     bordercolor="#666666"
     borderopacity="1.0"
     inkscape:pageopacity="0.0"
     inkscape:pageshadow="2"
     inkscape:zoom="1.979899"
     inkscape:cx="97.635097"
     inkscape:cy="86.576741"
     inkscape:document-units="px"
     inkscape:current-layer="layer1"
     showgrid="false"
     fit-margin-top="0"
     fit-margin-left="0"
     fit-margin-right="0"
     fit-margin-bottom="0"
     inkscape:window-width="1366"
     inkscape:window-height="705"
     inkscape:window-x="-8"
     inkscape:window-y="-8"
     inkscape:window-maximized="1" />
  <metadata
     id="metadata7">
    <rdf:RDF>
      <cc:Work
         rdf:about="">
        <dc:format>image/svg+xml</dc:format>
        <dc:type
           rdf:resource="http://purl.org/dc/dcmitype/StillImage" />
        <dc:title>Van Halen logo</dc:title>
        <dc:date>20/11/2016</dc:date>
        <dc:creator>
          <cc:Agent>
            <dc:title>Van Halen</dc:title>
          </cc:Agent>
        </dc:creator>
        <dc:publisher>
          <cc:Agent>
            <dc:title>CMetalCore</dc:title>
          </cc:Agent>
        </dc:publisher>
        <dc:source>https://bandlogos.files.wordpress.com/2011/09/van_halen_logo_wallpaper.jpg</dc:source>
        <cc:license
           rdf:resource="http://creativecommons.org/licenses/by-sa/3.0/" />
      </cc:Work>
      <cc:License
         rdf:about="http://creativecommons.org/licenses/by-sa/3.0/">
        <cc:permits
           rdf:resource="http://creativecommons.org/ns#Reproduction" />
        <cc:permits
           rdf:resource="http://creativecommons.org/ns#Distribution" />
        <cc:requires
           rdf:resource="http://creativecommons.org/ns#Notice" />
        <cc:requires
           rdf:resource="http://creativecommons.org/ns#Attribution" />
        <cc:permits
           rdf:resource="http://creativecommons.org/ns#DerivativeWorks" />
        <cc:requires
           rdf:resource="http://creativecommons.org/ns#ShareAlike" />
      </cc:License>
    </rdf:RDF>
  </metadata>
  <g
     inkscape:label="Capa 1"
     inkscape:groupmode="layer"
     id="layer1"
     transform="translate(-66.200591,-71.269026)">
    <path
       id="path4147"
       style="fill:#000000"
       d="m 200.52773,117.55498 c 9.57095,-25.215664 17.40173,-45.945474 17.40173,-46.066304 0,-0.1208 -9.54636,-0.21965 -21.21415,-0.21965 -16.81354,0 -21.17658,0.0989 -21.03308,0.47688 0.0996,0.26226 0.93341,2.49147 1.85295,4.95374 l 1.67189,4.47688 12.15716,0.006 c 11.39213,0.005 12.14564,0.0478 11.97401,0.67339 -0.14581,0.53151 -18.79514,49.866664 -20.22579,53.505584 l -0.37498,0.95375 -0.5658,-1.33526 c -0.3112,-0.7344 -5.7692,-15.0693 -12.12891,-31.85536 -6.3597,-16.786074 -11.6818,-30.820564 -11.82687,-31.187744 -0.24918,-0.6307 -2.8077,-0.66763 -46.2347,-0.66763 -36.62489,0 -45.93185,0.0969 -45.77875,0.47688 0.10569,0.26229 1.3016,2.45113 2.65758,4.86414 l 2.46541,4.38726 39.87066,0.0971 39.87066,0.0971 1.25116,3.33637 c 0.68814,1.83502 1.32986,3.55099 1.42606,3.81328 0.13919,0.37951 -7.80875,0.47687 -38.93799,0.47687 l -39.11286,0 2.73404,4.95205 2.73405,4.95207 38.2947,0.10282 38.29471,0.10285 1.42369,3.658944 1.42369,3.65893 -12.82254,0.25085 c -7.0524,0.13795 -23.85271,0.25112 -37.33401,0.25145 -13.48131,0 -24.5048,0.12938 -24.49665,0.28674 0.008,0.15736 1.17333,2.34623 2.58929,4.86414 l 2.57447,4.57802 36.7362,0.19075 36.73619,0.19075 8.74012,23.46234 c 4.80707,12.90426 8.84476,23.71984 8.97265,24.03459 0.18751,0.46143 0.2906,0.4245 0.53241,-0.19075 0.16492,-0.41966 8.13064,-21.39399 17.7016,-46.60965 z m 32.682,58.91306 22.66,-59.80034 37.61017,0 37.61016,0 2.74318,-4.93303 c 1.50873,-2.71318 2.74315,-5.03078 2.74315,-5.15027 0,-0.11948 -17.27175,-0.21724 -38.38171,-0.21724 -30.5443,0 -38.34598,-0.0974 -38.20681,-0.47688 0.0962,-0.26229 0.73822,-1.97905 1.42672,-3.81501 l 1.25182,-3.338144 39.21808,0 39.21804,0 2.68626,-4.86414 2.68627,-4.86415 -40.00157,-0.19075 -40.00157,-0.19075 1.39505,-3.62426 1.39504,-3.62427 40.81034,-0.0993 40.81035,-0.0993 1.42071,-2.5712 c 0.78139,-1.41418 2.02439,-3.64419 2.76222,-4.95558 l 1.34155,-2.38438 -47.01638,0.003 -47.01643,0 -10.51021,27.75261 -10.51021,27.752614 -11.5215,0.10096 c -6.33682,0.0555 -11.51921,-0.0302 -11.51642,-0.19075 0.003,-0.16045 3.8506,-10.42057 8.5507,-22.80029 l 8.54565,-22.508594 4.11304,-0.19075 4.11304,-0.19075 1.8333,-4.76224 c 1.00832,-2.61905 1.8333,-4.81091 1.8333,-4.87064 0,-0.0597 -4.23568,-0.0627 -9.41263,-0.006 l -9.41264,0.10206 -20.35545,53.703074 -20.35546,53.7031 2.58612,6.87895 c 1.68911,4.49296 2.69661,6.70707 2.90468,6.38338 0.17521,-0.27255 4.98213,-12.77038 10.68204,-27.77291 l 10.36348,-27.27735 11.56791,-0.10102 c 10.90629,-0.0952 11.55564,-0.0625 11.35324,0.57225 -0.11808,0.3703 -7.49146,19.86771 -16.38532,43.32755 l -16.17063,42.65429 2.4327,6.36863 c 1.33798,3.50276 2.53022,6.62616 2.64942,6.94092 0.19264,0.50864 0.24897,0.50864 0.50697,0 0.15963,-0.31476 10.48724,-27.48242 22.95024,-60.3726 z"
       inkscape:connector-curvature="0" />
  </g>
</svg>
